<mxfile host="app.diagrams.net" modified="2023-08-11T11:19:46.375Z" agent="Mozilla/5.0 (Windows NT 10.0; Win64; x64) AppleWebKit/537.36 (KHTML, like Gecko) Chrome/115.0.0.0 Safari/537.36 Edg/115.0.1901.200" version="21.6.8" etag="wLIktzd836-2zRYWcrAi" type="github">
  <diagram name="第 1 页" id="g0r_bwo_pE_zfv2Dgpc9">
    <mxGraphModel>
      <root>
        <mxCell id="0" />
        <mxCell id="1" parent="0" />
      </root>
    </mxGraphModel>
  </diagram>
</mxfile>
